<?xml version="1.0" encoding="UTF-8" standalone="no"?>
<!-- Created with Inkscape (http://www.inkscape.org/) -->

<svg
   width="23.813065mm"
   height="14.591415mm"
   viewBox="0 0 23.813065 14.591415"
   version="1.1"
   id="svg2731"
   inkscape:version="1.1 (c4e8f9e, 2021-05-24)"
   sodipodi:docname="cloud2.svg"
   xmlns:inkscape="http://www.inkscape.org/namespaces/inkscape"
   xmlns:sodipodi="http://sodipodi.sourceforge.net/DTD/sodipodi-0.dtd"
   xmlns="http://www.w3.org/2000/svg"
   xmlns:svg="http://www.w3.org/2000/svg">
  <sodipodi:namedview
     id="namedview2733"
     pagecolor="#ffffff"
     bordercolor="#999999"
     borderopacity="1"
     inkscape:pageshadow="0"
     inkscape:pageopacity="0"
     inkscape:pagecheckerboard="0"
     inkscape:document-units="mm"
     showgrid="false"
     fit-margin-top="0"
     fit-margin-left="0"
     fit-margin-right="0"
     fit-margin-bottom="0"
     inkscape:zoom="4.7755698"
     inkscape:cx="13.92504"
     inkscape:cy="38.110635"
     inkscape:window-width="1920"
     inkscape:window-height="1054"
     inkscape:window-x="0"
     inkscape:window-y="26"
     inkscape:window-maximized="0"
     inkscape:current-layer="layer1" />
  <defs
     id="defs2728">
    <radialGradient
       fx="0"
       fy="0"
       cx="0"
       cy="0"
       r="1"
       gradientUnits="userSpaceOnUse"
       gradientTransform="matrix(14.722617,0.00147226,-0.00147226,14.722617,170.09016,111.98239)"
       spreadMethod="pad"
       id="radialGradient878-5">
      <stop
         style="stop-opacity:1;stop-color:#ffffff"
         offset="0"
         id="stop872-2" />
      <stop
         style="stop-opacity:1;stop-color:#e9e9e9"
         offset="0.629032"
         id="stop874-2" />
      <stop
         style="stop-opacity:1;stop-color:#d3d4d3"
         offset="1"
         id="stop876-7" />
    </radialGradient>
  </defs>
  <g
     inkscape:label="Calque 1"
     inkscape:groupmode="layer"
     id="layer1"
     transform="translate(-156.03347,-102.32429)">
    <path
       d="m 162.34281,105.77491 c 0,0 0.30091,-3.33022 3.92394,-3.44699 3.28754,-0.10548 4.08305,2.12196 4.08305,2.12196 0,0 2.38654,-1.16664 4.08305,0.37147 1.69722,1.53812 1.21956,3.07552 1.21956,3.07552 0,0 2.4391,-0.42369 3.71192,1.27353 1.27212,1.69686 -0.15945,4.66584 -2.1216,4.61257 0,0 -0.79587,1.69721 -3.12879,0.90135 0,0 -1.00788,2.65147 -4.24215,2.17381 -3.23497,-0.47731 -3.23427,-2.12125 -3.23427,-2.12125 0,0 -1.16734,1.80269 -3.28824,1.43122 -2.12055,-0.37112 -2.17417,-2.22709 -2.17417,-2.22709 0,0 -3.28754,1.00718 -4.71911,-1.59102 -1.32115,-2.39748 0.68933,-5.35588 2.81094,-4.93184 0,0 0.42403,-2.28 3.07587,-1.64324"
       style="fill:url(#radialGradient878-5);fill-opacity:1;fill-rule:nonzero;stroke:none;stroke-width:0.0352778"
       id="path880-3" />
  </g>
</svg>
