<?xml version="1.0" encoding="UTF-8" standalone="no"?>
<svg
   viewBox="0 0 1440 320"
   version="1.1"
   id="svg9791"
   sodipodi:docname="wave.svg"
   xmlns:inkscape="http://www.inkscape.org/namespaces/inkscape"
   xmlns:sodipodi="http://sodipodi.sourceforge.net/DTD/sodipodi-0.dtd"
   xmlns="http://www.w3.org/2000/svg"
   xmlns:svg="http://www.w3.org/2000/svg">
  <defs
     id="defs9795" />
  <sodipodi:namedview
     id="namedview9793"
     pagecolor="#ffffff"
     bordercolor="#999999"
     borderopacity="1"
     inkscape:pageshadow="0"
     inkscape:pageopacity="0"
     inkscape:pagecheckerboard="0"
     showgrid="false" />
  <path
     fill="white"
     fill-opacity="1"
     d="M0,192L48,176C96,160,192,128,288,101.3C384,75,480,53,576,64C672,75,768,117,864,144C960,171,1056,181,1152,160C1248,139,1344,85,1392,58.7L1440,32L1440,320L1392,320C1344,320,1248,320,1152,320C1056,320,960,320,864,320C768,320,672,320,576,320C480,320,384,320,288,320C192,320,96,320,48,320L0,320Z"
     id="path9789" />
  <path
     fill="#ffffff"
     fill-opacity="1"
     d="m 188.13109,123.13906 48,-16 c 48,-15.999999 144,-47.999999 240,-74.699999 96,-26.2999999 192,-48.3 288,-37.2999999 96,11 192,52.9999999 288.00001,79.9999999 96,26.999999 192,36.999999 288,16 96,-21 192,-75 240,-101.3 l 48,-26.7 V 251.13906 h -48 c -48,0 -144,0 -240,0 -96,0 -192,0 -288,0 -96.00001,0 -192.00001,0 -288.00001,0 -96,0 -192,0 -288,0 -96,0 -192,0 -240,0 h -48 z"
     id="path11281" />
</svg>
